<?xml version="1.0" encoding="UTF-8"?>
<svg id="Layer_1" data-name="Layer 1" xmlns="http://www.w3.org/2000/svg" viewBox="0 0 456.39 461.04">
  <defs>
    <style>
      .cls-1 {
        fill: #fff;
      }
    </style>
  </defs>
  <path class="cls-1" d="M62.75,461.04c-12.17-1.64-26.13-16.87-34.53-25.47-9.28-9.5-24.94-24.9-26.89-38.11C-.53,272.3-.31,146.57,1.2,21.49,3.43,13.27,15.53,2.27,23.84,1.13c11.46-1.58,46.18-1.41,57.91-.09,3.39.38,6.57,1.76,9.41,3.59l274.61,274.41c2.27.03,2.33-1.73,2.53-3.45,3.6-30.78-2.89-68.76,0-100.01l-.07-67.02-35.98-38.02V1.04h93.5c9.6,0,29.37,17.7,29.5,28.5-.2,90.25.09,180.79.38,270.83.13,39.34,1.86,79.64-.37,119.18-.29,5.15.53,10.71-.25,15.75-2.22,14.22-22.04,34.03-36.26,21.74L92.73,129.05c-2.27-.03-2.33,1.73-2.53,3.45-1.56,13.3.92,27.79,1.09,41.01.72,54.79-2.13,109.36-.02,164.02l47.98,50.02v73.5H62.75Z"/>
</svg>